<svg t="1714967657486" class="icon" viewBox="0 0 1024 1024" version="1.1" xmlns="http://www.w3.org/2000/svg" p-id="1152"><path d="M524.8 217.6a102.4 102.4 0 1 1-101.632 114.9184c-66.1248 60.9536-89.664 131.8016-72.7168 214.5536 16.9344 82.6752 71.1168 139.8912 165.4272 172.1216a102.4 102.4 0 1 1 67.2768 69.5552c-161.024-28.416-257.152-105.856-282.8672-231.3984-26.0352-127.1424 27.8912-233.4464 157.5808-314.8544A101.9904 101.9904 0 0 1 524.8 217.6z m89.6 422.4a51.2 51.2 0 0 0-18.3424 99.0208l3.1744 0.512-0.1024 0.5504A51.2 51.2 0 1 0 614.4 640z m-51.2-166.4a25.6 25.6 0 1 1 0 51.2 25.6 25.6 0 0 1 0-51.2z m-38.4-204.8a51.2 51.2 0 1 0 0 102.4 51.2 51.2 0 0 0 0-102.4z"  p-id="1153"></path></svg>